# xmcd CD database file
#
# Track frame offsets:
#	150
#	13986
#	28390
#	43144
#	57135
#	72576
#	85217
#	96299
#	109369
#	115958
#	132916
#	143776
#	154488
#	162098
#
# Disc length: 2849 seconds
#
# Revision: 0
# Processed by: cddbd v1.5.1PL0 Copyright (c) Steve Scherf et al.
# Submitted via: CDex 1.50beta10
#
DISCID=d00b1f0e
DTITLE=Slim Whitman - The Only Place to Be
DYEAR=2002
DGENRE=Country
TTITLE0=Way Down in Floride That's the only place to be
TTITLE1=Whippoorwill yodel
TTITLE2=By the Waters of Minnetonka
TTITLE3=Dear Mary
TTITLE4=Careless Hands
TTITLE5=Die Son Skyn Skin Weer More (Sunrise)
TTITLE6=Fluisterende Hoop
TTITLE7=Indian Love Call
TTITLE8=I'm Casting My Lasso Towards the Sky
TTITLE9=Twelfth of Never
TTITLE10=I Remember You
TTITLE11=Cattle Call
TTITLE12=Rose Marie
TTITLE13=I Remember Slim (interview with Frank Page) - Louisiana Hayride
EXTD=YEAR: 2002
EXTT0=
EXTT1=
EXTT2=
EXTT3=
EXTT4=
EXTT5=
EXTT6=
EXTT7=
EXTT8=
EXTT9=
EXTT10=
EXTT11=
EXTT12=
EXTT13=
PLAYORDER=
